<svg width="338" height="64" viewBox="0 0 338 64" fill="none" xmlns="http://www.w3.org/2000/svg">
<g clip-path="url(#clip0_211_65)">
<rect x="12.0859" y="10.9871" width="41.7511" height="45.5966" fill="white"/>
<path d="M17.191 54.3949L13.8555 46.1844C14.0607 46.1844 17.191 46.0133 18.7305 45.9278L19.7568 41.8225L28.4805 37.7172H18.2173L14.6252 28.9936H22.3226L23.0923 24.6317L31.816 20.5264H19.5002L16.1647 12.0593H36.691C48.5963 15.7541 47.2963 26.2567 45.1581 31.0462C49.4687 33.5093 50.8884 38.9146 51.0595 41.3094C51.0595 49.1094 44.5594 53.283 41.3094 54.3949H17.191Z" stroke="black"/>
<path d="M30.7894 28.7369L32.5855 20.7829C37.5118 20.1671 38.2302 24.1184 37.9736 26.1711C37.5631 27.4027 36.092 28.3948 35.4078 28.7369H30.7894Z" stroke="black"/>
<path d="M27.7104 45.9277L29.2499 37.7171H39.2565C44.5934 41.2066 41.3091 44.6448 38.9999 45.9277H27.7104Z" stroke="black"/>
<path d="M0 32V64H32H64V32V-1.86637e-06H32H0V32ZM37.7991 12.5624C39.9371 13.2751 41.7677 14.407 43.221 15.8882C45.1074 17.8166 46.0996 19.7729 46.7563 22.917C46.7983 23.0987 46.8402 23.9511 46.8402 24.8035C46.8402 26.648 46.4629 28.4367 45.7502 29.9878L45.2891 31.0079L45.9459 31.4969C46.938 32.2236 48.3773 33.7747 49.1039 34.8926C51.2 38.1345 51.6751 42.2987 50.3755 45.9459C49.0201 49.7188 46.3511 52.3598 42.4105 53.8271L41.1528 54.2882L29.4148 54.3581C22.959 54.4 17.5511 54.414 17.3974 54.386C17.1738 54.3581 16.8105 53.5755 15.5249 50.4035C14.6445 48.2376 13.9039 46.3511 13.862 46.2253C13.8061 45.9878 13.9878 45.9738 16.2515 45.9738C18.0681 45.9738 18.7389 45.9319 18.8227 45.7921C18.8786 45.7083 19.1022 44.786 19.2978 43.752C19.5074 42.7319 19.731 41.8376 19.8009 41.7677C19.9266 41.6419 23.2664 40.0769 26.7179 38.5397C27.7799 38.0646 28.6183 37.6594 28.5904 37.6314C28.5624 37.6035 26.2568 37.5755 23.462 37.5755C20.6672 37.5755 18.3057 37.5336 18.2079 37.4777C18.0262 37.3659 14.8122 29.4568 14.8122 29.1214C14.8122 28.9537 15.3991 28.9258 18.5572 28.9258H22.3022L22.6795 26.9415C22.8891 25.8376 23.1406 24.8734 23.2384 24.7755C23.3223 24.6917 24.3843 24.1747 25.5721 23.6437C26.7598 23.1127 28.1153 22.4978 28.5764 22.2882C29.0376 22.0786 30.0157 21.6314 30.7424 21.2961C31.5249 20.9467 31.986 20.6672 31.8603 20.6253C31.7485 20.5834 28.9537 20.5275 25.6419 20.5135L19.6332 20.4716L18.6969 18.3057C18.1939 17.1179 17.5651 15.6367 17.3275 15.0218C17.076 14.407 16.7266 13.5686 16.531 13.1493C16.3493 12.7301 16.2236 12.3249 16.2515 12.241C16.2935 12.1293 19.1441 12.1013 26.5642 12.1572L36.821 12.2271L37.7991 12.5624Z" fill="black"/>
<path d="M32.4892 20.7092C32.4472 20.821 32.042 22.7074 31.5948 24.9153L30.7983 28.9258H32.9643C34.9625 28.9258 35.2001 28.8978 35.8569 28.5904C36.8071 28.1432 37.4638 27.5563 37.8691 26.7319C38.1625 26.159 38.2184 25.8655 38.2184 24.7336C38.2184 23.5459 38.1765 23.3363 37.8411 22.7633C37.366 21.9668 36.6114 21.2821 35.787 20.9188C34.9486 20.5555 32.601 20.4018 32.4892 20.7092Z" fill="black"/>
<path d="M29.0657 37.6176C29.0657 37.6455 28.6884 39.4761 28.2413 41.7119C27.7801 43.9337 27.4587 45.8202 27.5286 45.8761C27.5845 45.932 30.2675 45.9739 33.4814 45.9459C39.2945 45.904 39.3364 45.904 40.0631 45.5686C41.6142 44.87 42.7181 43.0813 42.5784 41.4883C42.4526 39.9652 41.5443 38.6097 40.2028 37.9529L39.4902 37.5896H34.2779C31.4133 37.5896 29.0657 37.6036 29.0657 37.6176Z" fill="black"/>
</g>
<rect x="1" y="1" width="62" height="62" stroke="#4061EA" stroke-width="2"/>
<path d="M70.4858 51V23.7273H80.2869V51H70.4858ZM75.3864 20.8864C74.0606 20.8864 72.9242 20.4484 71.9773 19.5724C71.0303 18.6965 70.5568 17.643 70.5568 16.4119C70.5568 15.1809 71.0303 14.1274 71.9773 13.2514C72.9242 12.3755 74.0606 11.9375 75.3864 11.9375C76.724 11.9375 77.8603 12.3755 78.7955 13.2514C79.7424 14.1274 80.2159 15.1809 80.2159 16.4119C80.2159 17.643 79.7424 18.6965 78.7955 19.5724C77.8603 20.4484 76.724 20.8864 75.3864 20.8864ZM85.5648 51V45.6023L97.4966 31.3267V31.1847H85.9909V23.7273H109.073V29.6932L98.2069 43.4006V43.5426H109.499V51H85.5648ZM114.777 51V14.6364H140.985V22.5909H124.65V28.8409H139.635V36.7955H124.65V43.0455H140.914V51H114.777ZM155.824 35.6591V51H146.023V23.7273H155.327V28.9119H155.611C156.203 27.1837 157.244 25.8284 158.736 24.8459C160.239 23.8634 161.991 23.3722 163.992 23.3722C165.921 23.3722 167.596 23.8161 169.017 24.7038C170.449 25.5798 171.556 26.7872 172.337 28.326C173.13 29.8648 173.521 31.6226 173.509 33.5994V51H163.708V35.6591C163.719 34.3097 163.376 33.2502 162.678 32.4808C161.991 31.7114 161.032 31.3267 159.801 31.3267C158.996 31.3267 158.292 31.5043 157.688 31.8594C157.097 32.2027 156.641 32.6998 156.321 33.3509C156.002 33.9901 155.836 34.7595 155.824 35.6591ZM185.947 51.4261C184.206 51.4261 182.668 51.142 181.33 50.5739C180.004 49.9938 178.963 49.1179 178.205 47.946C177.448 46.7741 177.069 45.2827 177.069 43.4716C177.069 41.9801 177.323 40.7076 177.832 39.6541C178.341 38.5888 179.051 37.7188 179.963 37.044C180.874 36.3693 181.934 35.8544 183.141 35.4993C184.36 35.1442 185.674 34.9134 187.083 34.8068C188.61 34.6884 189.835 34.5464 190.758 34.3807C191.693 34.2031 192.368 33.9605 192.782 33.6527C193.197 33.3331 193.404 32.9129 193.404 32.392V32.321C193.404 31.6108 193.132 31.0663 192.587 30.6875C192.043 30.3087 191.344 30.1193 190.492 30.1193C189.557 30.1193 188.793 30.3265 188.202 30.7408C187.622 31.1432 187.272 31.7647 187.154 32.6051H178.134C178.252 30.9479 178.779 29.4209 179.714 28.0241C180.661 26.6155 182.04 25.491 183.851 24.6506C185.662 23.7983 187.923 23.3722 190.634 23.3722C192.587 23.3722 194.339 23.603 195.89 24.0646C197.44 24.5144 198.76 25.1477 199.849 25.9645C200.938 26.7694 201.767 27.7164 202.335 28.8054C202.915 29.8826 203.205 31.0545 203.205 32.321V51H194.043V47.1648H193.83C193.286 48.1828 192.623 49.0054 191.841 49.6328C191.072 50.2602 190.19 50.7159 189.196 51C188.213 51.2841 187.13 51.4261 185.947 51.4261ZM189.143 45.2472C189.888 45.2472 190.587 45.0933 191.238 44.7855C191.901 44.4777 192.439 44.0339 192.854 43.4538C193.268 42.8738 193.475 42.1695 193.475 41.3409V39.0682C193.215 39.1747 192.936 39.2753 192.64 39.37C192.356 39.4647 192.049 39.5535 191.717 39.6364C191.398 39.7192 191.054 39.7962 190.687 39.8672C190.332 39.9382 189.959 40.0033 189.569 40.0625C188.811 40.1809 188.19 40.3762 187.704 40.6484C187.231 40.9089 186.876 41.2344 186.639 41.625C186.414 42.0038 186.302 42.4299 186.302 42.9034C186.302 43.661 186.568 44.241 187.101 44.6435C187.633 45.0459 188.314 45.2472 189.143 45.2472ZM207.746 51V14.6364H217.547V28.4858H217.689C218.044 27.5625 218.565 26.7161 219.252 25.9467C219.938 25.1655 220.791 24.544 221.809 24.0824C222.827 23.6089 224.01 23.3722 225.36 23.3722C227.159 23.3722 228.869 23.8516 230.491 24.8104C232.125 25.7692 233.45 27.2784 234.468 29.3381C235.498 31.3977 236.013 34.0729 236.013 37.3636C236.013 40.5123 235.522 43.1224 234.539 45.1939C233.569 47.2654 232.267 48.8101 230.633 49.8281C229.011 50.8461 227.23 51.3551 225.289 51.3551C224.01 51.3551 222.868 51.148 221.862 50.7337C220.868 50.3075 220.015 49.7334 219.305 49.0114C218.607 48.2775 218.068 47.4489 217.689 46.5256H217.476V51H207.746ZM217.334 37.3636C217.334 38.6894 217.506 39.8376 217.849 40.8082C218.204 41.767 218.701 42.5128 219.341 43.0455C219.992 43.5663 220.767 43.8267 221.667 43.8267C222.566 43.8267 223.33 43.5722 223.957 43.0632C224.596 42.5424 225.082 41.8026 225.413 40.8438C225.756 39.8731 225.928 38.7131 225.928 37.3636C225.928 36.0142 225.756 34.8601 225.413 33.9013C225.082 32.9306 224.596 32.1908 223.957 31.6818C223.33 31.161 222.566 30.9006 221.667 30.9006C220.767 30.9006 219.992 31.161 219.341 31.6818C218.701 32.1908 218.204 32.9306 217.849 33.9013C217.506 34.8601 217.334 36.0142 217.334 37.3636ZM249.916 14.6364V51H240.115V14.6364H249.916ZM267.978 51.4972C265.066 51.4972 262.556 50.9408 260.449 49.8281C258.354 48.7036 256.738 47.0937 255.602 44.9986C254.478 42.8916 253.915 40.3703 253.915 37.4347C253.915 34.6174 254.483 32.1553 255.62 30.0483C256.756 27.9413 258.36 26.3018 260.432 25.13C262.503 23.9581 264.948 23.3722 267.765 23.3722C269.824 23.3722 271.689 23.6918 273.358 24.331C275.027 24.9702 276.453 25.8994 277.637 27.1186C278.821 28.326 279.732 29.7938 280.371 31.522C281.01 33.2502 281.33 35.1974 281.33 37.3636V39.6364H256.969V34.2386H272.31C272.298 33.4574 272.097 32.7708 271.706 32.179C271.328 31.5753 270.813 31.1077 270.162 30.7763C269.523 30.433 268.795 30.2614 267.978 30.2614C267.185 30.2614 266.457 30.433 265.794 30.7763C265.131 31.1077 264.598 31.5694 264.196 32.1612C263.805 32.7531 263.598 33.4455 263.574 34.2386V40.0625C263.574 40.9384 263.758 41.7197 264.125 42.4062C264.492 43.0928 265.019 43.6314 265.705 44.022C266.392 44.4126 267.22 44.608 268.191 44.608C268.866 44.608 269.481 44.5133 270.037 44.3239C270.606 44.1345 271.091 43.8622 271.493 43.5071C271.896 43.1402 272.192 42.7022 272.381 42.1932H281.33C281.022 44.0871 280.294 45.7325 279.146 47.1293C277.998 48.5142 276.477 49.5914 274.583 50.3608C272.701 51.1184 270.499 51.4972 267.978 51.4972ZM285.33 51V23.7273H294.847V28.9119H295.131C295.628 26.9943 296.415 25.5916 297.492 24.7038C298.581 23.8161 299.854 23.3722 301.31 23.3722C301.736 23.3722 302.156 23.4077 302.57 23.4787C302.996 23.5379 303.405 23.6267 303.795 23.745V32.108C303.31 31.9422 302.712 31.8179 302.002 31.7351C301.292 31.6522 300.682 31.6108 300.173 31.6108C299.214 31.6108 298.35 31.8298 297.581 32.2678C296.823 32.6939 296.226 33.2976 295.788 34.0788C295.35 34.8482 295.131 35.7538 295.131 36.7955V51H285.33Z" fill="black"/>
<defs>
<clipPath id="clip0_211_65">
<rect width="64" height="64" fill="white"/>
</clipPath>
</defs>
</svg>
