<svg width="125" height="125" viewBox="0 0 125 125" fill="none" xmlns="http://www.w3.org/2000/svg">
<g clip-path="url(#clip0_211_38)">
<rect x="23.5518" y="21.4108" width="81.361" height="88.8548" fill="white"/>
<path d="M0 62.3589V124.718H62.3589H124.718V62.3589V-6.10352e-05H62.3589H0V62.3589ZM73.6598 24.4806C77.8261 25.8694 81.3934 28.0751 84.2254 30.9615C87.9016 34.7194 89.835 38.5318 91.1148 44.6587C91.1965 45.0127 91.2782 46.6738 91.2782 48.3349C91.2782 51.9294 90.543 55.415 89.1542 58.4376L88.2556 60.4255L89.5354 61.3785C91.4688 62.7946 94.2736 65.8172 95.6896 67.9957C99.7743 74.3133 100.7 82.4281 98.1676 89.5354C95.5262 96.8877 90.3251 102.034 82.646 104.894L80.1952 105.792L57.3212 105.928C44.7405 106.01 34.2021 106.037 33.9026 105.983C33.4669 105.928 32.7589 104.403 30.2536 98.222C28.5381 94.0012 27.0948 90.3251 27.0131 90.08C26.9042 89.6171 27.2582 89.5898 31.6696 89.5898C35.2096 89.5898 36.5167 89.5081 36.6801 89.2358C36.789 89.0724 37.2247 87.2752 37.606 85.2601C38.0144 83.2722 38.4501 81.5295 38.5863 81.3933C38.8314 81.1482 45.3396 78.0984 52.0656 75.1029C54.1352 74.1771 55.769 73.3874 55.7146 73.3329C55.6601 73.2785 51.167 73.224 45.7208 73.224C40.2746 73.224 35.6726 73.1423 35.482 73.0334C35.1279 72.8155 28.8648 57.4028 28.8648 56.7493C28.8648 56.4225 30.0085 56.368 36.1627 56.368H43.4606L44.1959 52.5012C44.6043 50.35 45.0945 48.4711 45.2851 48.2804C45.4485 48.1171 47.518 47.1095 49.8327 46.0747C52.1473 45.04 54.7887 43.8418 55.6873 43.4333C56.586 43.0249 58.4921 42.1535 59.9081 41.4999C61.4331 40.8192 62.3317 40.2745 62.0866 40.1928C61.8688 40.1112 56.4226 40.0022 49.9688 39.975L38.2595 39.8933L36.435 35.6725C35.4547 33.3579 34.2293 30.4714 33.7664 29.2732C33.2762 28.0751 32.5955 26.4412 32.2142 25.6243C31.8602 24.8074 31.6152 24.0177 31.6696 23.8543C31.7513 23.6364 37.3064 23.582 51.7661 23.6909L71.7536 23.827L73.6598 24.4806Z" fill="black"/>
<path d="M63.312 40.3562C63.2303 40.5741 62.4406 44.2503 61.5693 48.5528L60.0171 56.368H64.2379C68.1319 56.368 68.5948 56.3136 69.8747 55.7145C71.7264 54.8431 73.0063 53.6994 73.796 52.0928C74.3678 50.9763 74.4767 50.4045 74.4767 48.1988C74.4767 45.8841 74.395 45.4757 73.7415 44.3592C72.8156 42.807 71.3452 41.4727 69.7385 40.7647C68.1047 40.0567 63.5299 39.7572 63.312 40.3562Z" fill="black"/>
<path d="M56.6405 73.3057C56.6405 73.3602 55.9052 76.9275 55.0338 81.2844C54.1352 85.6141 53.5089 89.2903 53.6451 89.3992C53.754 89.5082 58.9823 89.5899 65.2455 89.5354C76.5735 89.4537 76.6552 89.4537 78.0712 88.8002C81.0939 87.4386 83.2451 83.9531 82.9728 80.8487C82.7277 77.8805 80.9577 75.2391 78.3436 73.9593L76.9548 73.2513H66.7976C61.2153 73.2513 56.6405 73.2785 56.6405 73.3057Z" fill="black"/>
</g>
<defs>
<clipPath id="clip0_211_38">
<rect width="124.718" height="124.718" fill="white"/>
</clipPath>
</defs>
</svg>
